<svg xmlns="http://www.w3.org/2000/svg" xmlns:xlink="http://www.w3.org/1999/xlink" width="17.596" height="25.543" viewBox="0 0 17.596 25.543">
  <defs>
    <linearGradient id="linear-gradient" x1="0.5" x2="0.5" y2="1" gradientUnits="objectBoundingBox">
      <stop offset="0" stop-color="#0012ff"/>
      <stop offset="1" stop-color="#5d00ff"/>
    </linearGradient>
  </defs>
  <path id="DiagnosticsIcon" d="M32.7,4.008A3.037,3.037,0,1,0,28.5,6.79c-.028.511-.341,3.69-4.8,5.307a10.353,10.353,0,0,0-4.371,2.753V6.79a2.915,2.915,0,0,0,1.816-2.781A3.053,3.053,0,0,0,18.108,1a2.986,2.986,0,0,0-2.98,3.008,3.017,3.017,0,0,0,1.93,2.781V20.753A3.043,3.043,0,0,0,15.1,23.535a3,3,0,0,0,2.98,3.008,3.059,3.059,0,0,0,3.065-3.008A2.94,2.94,0,0,0,19.3,20.753v-.908c0-.312.142-3.775,5.194-5.62,6.017-2.185,6.3-6.868,6.3-7.436a2.991,2.991,0,0,0,1.9-2.781ZM18.08,2.7a1.3,1.3,0,0,1,1.306,1.306A1.321,1.321,0,0,1,18.08,5.314a1.306,1.306,0,0,1,0-2.611Zm0,22.137a1.3,1.3,0,0,1-1.306-1.306,1.321,1.321,0,0,1,1.306-1.306,1.3,1.3,0,0,1,1.306,1.306A1.321,1.321,0,0,1,18.08,24.84ZM29.66,5.314a1.3,1.3,0,0,1-1.306-1.306A1.321,1.321,0,0,1,29.66,2.7a1.306,1.306,0,0,1,0,2.611Z" transform="translate(-15.1 -1)" fill="url(#linear-gradient)"/>
</svg>
