<svg xmlns="http://www.w3.org/2000/svg" width="25.099" height="25.106" viewBox="0 0 25.099 25.106">
  <path id="ProfileIcon" d="M10.74,10.293a3.989,3.989,0,0,1,3.773-4.175,3.989,3.989,0,0,1,3.773,4.175,3.987,3.987,0,0,1-3.773,4.166,3.987,3.987,0,0,1-3.773-4.166Zm16.326,4.22A12.444,12.444,0,0,1,24.929,21.5a1.28,1.28,0,0,1-.125.179,12.529,12.529,0,0,1-20.581,0A1.28,1.28,0,0,1,4.1,21.5a12.549,12.549,0,1,1,22.968-6.992Zm-23.764,0a11.185,11.185,0,0,0,1.4,5.445c1.94-2.548,5.659-4.139,9.808-4.139s7.868,1.591,9.808,4.139A11.214,11.214,0,1,0,3.3,14.512Z" transform="translate(-1.967 -1.959)" fill="#9f9f9f"/>
</svg>
