<svg xmlns="http://www.w3.org/2000/svg" width="18.575" height="30.433" viewBox="0 0 18.575 30.433">
  <g id="SenseIcon" transform="translate(-308.8 -345.631)">
    <path id="Path_58" data-name="Path 58" d="M326.394,373.214c-.486,5.017-1.776,9.738-5.22,13.639a9.71,9.71,0,0,1-1.664,1.437c-2.156,1.535-6.166.33-6.1-3.222a28.371,28.371,0,0,1,.426-4.031,10.553,10.553,0,0,0-1.3-7.33c-2.13-3.592-.779-6.564,3.085-8.005a8.221,8.221,0,0,1,9.325,2.563A7.824,7.824,0,0,1,326.394,373.214Z" transform="translate(-1.793 -12.881)" fill="#9f9f9f"/>
    <path id="Path_60" data-name="Path 60" d="M314.348,349.111c0,.112.007.225,0,.337a2.622,2.622,0,0,1-5.106,1.008,3.585,3.585,0,0,1-.021-3.406,2.438,2.438,0,0,1,3.983-.661A3.631,3.631,0,0,1,314.348,349.111Z" transform="translate(0 0)" fill="#9f9f9f"/>
    <path id="Path_63" data-name="Path 63" d="M328.5,352.2a2.483,2.483,0,0,1-2.187-2.706,2.563,2.563,0,0,1,2.422-2.535,2.52,2.52,0,0,1,2.2,2.546A2.583,2.583,0,0,1,328.5,352.2Z" transform="translate(-11.541 -0.877)" fill="#9f9f9f"/>
    <path id="Path_65" data-name="Path 65" d="M344.159,354.363a1.663,1.663,0,0,1-1.741,1.683,1.7,1.7,0,0,1-1.5-2.054,1.877,1.877,0,0,1,1.753-1.738A1.821,1.821,0,0,1,344.159,354.363Z" transform="translate(-21.163 -4.365)" fill="#9f9f9f"/>
    <path id="Path_66" data-name="Path 66" d="M352.553,361.368a1.908,1.908,0,0,1-1.6,1.866,1.5,1.5,0,0,1-1.493-1.493,1.764,1.764,0,0,1,1.6-1.83A1.416,1.416,0,0,1,352.553,361.368Z" transform="translate(-26.801 -9.413)" fill="#9f9f9f"/>
    <path id="Path_69" data-name="Path 69" d="M357.277,370.432a1.785,1.785,0,0,1-1.831,1.629,1.43,1.43,0,0,1-1.266-1.534,1.849,1.849,0,0,1,1.892-1.591A1.212,1.212,0,0,1,357.277,370.432Z" transform="translate(-29.911 -15.362)" fill="#9f9f9f"/>
  </g>
</svg>
