<svg xmlns="http://www.w3.org/2000/svg" width="18.004" height="18.005" viewBox="0 0 18.004 18.005">
  <path id="call" d="M64.68,7176.6c-.556,1.688-2.733,2.531-4.289,2.391a13.69,13.69,0,0,1-6.191-2.56,20.388,20.388,0,0,1-6.4-7.642c-1-2.116-1.218-4.718.262-6.646a2.545,2.545,0,0,1,2.028-1.139c1.234-.06,1.407.646,1.83,1.745.316.822.737,1.661.972,2.514.44,1.591-1.1,1.656-1.294,2.957-.12.819.873,1.919,1.321,2.5a12.126,12.126,0,0,0,3.13,2.885c.684.431,1.786,1.207,2.569.778,1.205-.66,1.092-2.692,2.776-2a26.852,26.852,0,0,1,2.551,1.316c1.288.692,1.228,1.41.737,2.9h0" transform="translate(-47 -7161.003)" fill="#262626" fill-rule="evenodd"/>
</svg>
