<svg xmlns="http://www.w3.org/2000/svg" width="17.476" height="18.313" viewBox="0 0 17.476 18.313">
  <path id="hospital_1_" data-name="hospital (1)" d="M31.043,24.65l-1.494,2.482a.974.974,0,0,1-1.325.337L25.6,25.855a.438.438,0,0,0-.482,0,.466.466,0,0,0-.241.41v3.084a.967.967,0,0,1-.964.964H21.019a.967.967,0,0,1-.964-.964V26.265a.466.466,0,0,0-.241-.41.438.438,0,0,0-.482,0l-2.651,1.59a.979.979,0,0,1-1.325-.337l-1.494-2.482a.959.959,0,0,1,.313-1.325l2.916-1.759a.5.5,0,0,0,.241-.41.466.466,0,0,0-.241-.41L14.2,18.988a.925.925,0,0,1-.434-.6.959.959,0,0,1,.12-.723l1.494-2.482a.959.959,0,0,1,1.325-.313l2.626,1.59a.438.438,0,0,0,.482,0,.466.466,0,0,0,.241-.41V12.964A.967.967,0,0,1,21.019,12H23.91a.967.967,0,0,1,.964.964v3.084a.466.466,0,0,0,.241.41.491.491,0,0,0,.482,0l2.651-1.59a.959.959,0,0,1,.723-.12,1.09,1.09,0,0,1,.6.434l1.494,2.482a.974.974,0,0,1-.337,1.325l-2.916,1.759a.469.469,0,0,0,0,.819l2.916,1.759a.871.871,0,0,1,.434.6A.959.959,0,0,1,31.043,24.65Z" transform="translate(-13.723 -12)" fill="#3a3a3a"/>
</svg>
