<svg xmlns="http://www.w3.org/2000/svg" width="23.733" height="24.87" viewBox="0 0 23.733 24.87">
  <path id="hospital_1_" data-name="hospital (1)" d="M37.244,29.18l-2.029,3.371a1.322,1.322,0,0,1-1.8.458l-3.567-2.193a.6.6,0,0,0-.654,0,.633.633,0,0,0-.327.556v4.189a1.313,1.313,0,0,1-1.309,1.309H23.631a1.313,1.313,0,0,1-1.309-1.309V31.373a.633.633,0,0,0-.327-.556.594.594,0,0,0-.654,0l-3.6,2.16a1.33,1.33,0,0,1-1.8-.458l-2.029-3.371a1.3,1.3,0,0,1,.425-1.8l3.96-2.389a.675.675,0,0,0,.327-.556.633.633,0,0,0-.327-.556L14.37,21.49a1.256,1.256,0,0,1-.589-.818,1.3,1.3,0,0,1,.164-.982l2.029-3.371a1.3,1.3,0,0,1,1.8-.425l3.567,2.16a.594.594,0,0,0,.654,0,.633.633,0,0,0,.327-.556V13.309A1.313,1.313,0,0,1,23.631,12h3.927a1.313,1.313,0,0,1,1.309,1.309V17.5a.633.633,0,0,0,.327.556.666.666,0,0,0,.654,0l3.6-2.16a1.3,1.3,0,0,1,.982-.164,1.481,1.481,0,0,1,.818.589l2.029,3.371a1.322,1.322,0,0,1-.458,1.8l-3.96,2.389a.636.636,0,0,0,0,1.113l3.96,2.389a1.183,1.183,0,0,1,.589.818A1.3,1.3,0,0,1,37.244,29.18Z" transform="translate(-13.723 -12)" fill="#ff5400"/>
</svg>
