<svg xmlns="http://www.w3.org/2000/svg" width="18.146" height="19.542" viewBox="0 0 18.146 19.542">
  <path id="bell_1_" data-name="bell (1)" d="M73.248,18.5a.154.154,0,0,0-.174-.174,1.583,1.583,0,0,1-1.57-1.57.174.174,0,0,0-.349,0,1.918,1.918,0,0,0,1.919,1.919A.154.154,0,0,0,73.248,18.5Zm8.9-3.141a1.415,1.415,0,0,1-1.4,1.4H75.865a2.792,2.792,0,0,1-5.584,0H65.4a1.415,1.415,0,0,1-1.4-1.4,9.579,9.579,0,0,0,.992-.96,8.65,8.65,0,0,0,.927-1.3,9.8,9.8,0,0,0,.812-1.728,12.726,12.726,0,0,0,.545-2.246,17.839,17.839,0,0,0,.213-2.835A4.534,4.534,0,0,1,68.766,3.2a5.392,5.392,0,0,1,3.348-1.728,1.086,1.086,0,0,1-.087-.425,1.01,1.01,0,0,1,.305-.742,1.053,1.053,0,0,1,1.483,0,1.01,1.01,0,0,1,.305.742,1.086,1.086,0,0,1-.087.425A5.392,5.392,0,0,1,77.381,3.2a4.534,4.534,0,0,1,1.276,3.081,17.839,17.839,0,0,0,.213,2.835,12.726,12.726,0,0,0,.545,2.246,9.8,9.8,0,0,0,.812,1.728,8.649,8.649,0,0,0,.927,1.3A9.579,9.579,0,0,0,82.146,15.355Z" transform="translate(-64)" fill="#3a3a3a"/>
</svg>
