<svg xmlns="http://www.w3.org/2000/svg" xmlns:xlink="http://www.w3.org/1999/xlink" width="158" height="106.87" viewBox="0 0 158 106.87">
  <defs>
    <linearGradient id="linear-gradient" x1="0.5" x2="0.5" y2="1" gradientUnits="objectBoundingBox">
      <stop offset="0" stop-color="#ffe19b"/>
      <stop offset="1" stop-color="#ffbb5f"/>
    </linearGradient>
  </defs>
  <g id="Onboarding" transform="translate(-130 -169.042)">
    <path id="Path_123" data-name="Path 123" d="M3308.868,306.866s.028-1.083,0-7.982-.568-14.713-14.608-14.617-5.681,0-5.681,0" transform="translate(-3052.788 -112.189)" fill="none" stroke="#0012ff" stroke-linecap="round" stroke-width="6"/>
    <path id="Path_124" data-name="Path 124" d="M3286.122,306.866s-.028-1.083,0-7.982.568-14.713,14.608-14.617,5.681,0,5.681,0" transform="translate(-3130.203 -112.189)" fill="none" stroke="#0012ff" stroke-linecap="round" stroke-width="6"/>
    <path id="Path_125" data-name="Path 125" d="M3286.122,284.267s-.028,1.083,0,7.982.568,14.713,14.608,14.617,5.681,0,5.681,0" transform="translate(-3130.203 -33.991)" fill="none" stroke="#0012ff" stroke-linecap="round" stroke-width="6"/>
    <path id="Path_126" data-name="Path 126" d="M3308.868,284.267s.028,1.083,0,7.982-.568,14.713-14.608,14.617-5.681,0-5.681,0" transform="translate(-3052.788 -33.991)" fill="none" stroke="#0012ff" stroke-linecap="round" stroke-width="6"/>
    <g id="Group_609" data-name="Group 609" transform="translate(208.409 191.671)">
      <path id="Path_58" data-name="Path 58" d="M342.356,381.846c-1.007,10.4-3.682,20.187-10.821,28.275a20.126,20.126,0,0,1-3.45,2.98c-4.47,3.181-12.782.685-12.656-6.68a58.812,58.812,0,0,1,.883-8.357,21.878,21.878,0,0,0-2.7-15.2c-4.416-7.447-1.614-13.608,6.4-16.6a17.042,17.042,0,0,1,19.332,5.313A16.22,16.22,0,0,1,342.356,381.846Z" transform="translate(-309.598 -351.366)" fill="url(#linear-gradient)"/>
      <path id="Path_60" data-name="Path 60" d="M320.3,352.845c0,.233.014.467,0,.7a6.089,6.089,0,0,1-4.368,5.722c-2.209.5-4.952-1.078-6.218-3.633a7.432,7.432,0,0,1-.043-7.06,5.053,5.053,0,0,1,8.257-1.371A7.528,7.528,0,0,1,320.3,352.845Z" transform="translate(-308.799 -345.631)" fill="url(#linear-gradient)"/>
      <path id="Path_63" data-name="Path 63" d="M330.853,357.828c-2.587-.079-4.73-2.731-4.534-5.609.2-2.978,2.47-5.35,5.022-5.256,2.428.09,4.558,2.553,4.564,5.277C335.911,355.305,333.555,357.911,330.853,357.828Z" transform="translate(-313.938 -346.021)" fill="url(#linear-gradient)"/>
      <path id="Path_65" data-name="Path 65" d="M347.653,356.627c-.212,2.211-1.647,3.6-3.61,3.489-2.031-.112-3.357-1.927-3.111-4.257.211-2.005,1.928-3.706,3.635-3.6C346.453,352.371,347.87,354.376,347.653,356.627Z" transform="translate(-318.222 -347.574)" fill="url(#linear-gradient)"/>
      <path id="Path_66" data-name="Path 66" d="M355.877,362.934a3.955,3.955,0,0,1-3.324,3.869,3.106,3.106,0,0,1-3.1-3.094,3.656,3.656,0,0,1,3.311-3.795A2.936,2.936,0,0,1,355.877,362.934Z" transform="translate(-320.733 -349.822)" fill="url(#linear-gradient)"/>
      <path id="Path_69" data-name="Path 69" d="M360.608,372.039a3.7,3.7,0,0,1-3.8,3.377,2.963,2.963,0,0,1-2.625-3.179,3.833,3.833,0,0,1,3.922-3.3C359.865,369.037,360.765,370.153,360.608,372.039Z" transform="translate(-322.118 -352.47)" fill="url(#linear-gradient)"/>
    </g>
    <g id="Group_645" data-name="Group 645" transform="translate(167.259 191.671)">
      <path id="Path_58-2" data-name="Path 58" d="M311.52,381.846c1.007,10.4,3.682,20.187,10.821,28.275a20.126,20.126,0,0,0,3.45,2.98c4.47,3.181,12.782.685,12.656-6.68a58.812,58.812,0,0,0-.883-8.357,21.878,21.878,0,0,1,2.7-15.2c4.416-7.447,1.614-13.608-6.4-16.6a17.042,17.042,0,0,0-19.332,5.313A16.22,16.22,0,0,0,311.52,381.846Z" transform="translate(-305.77 -351.366)" fill="url(#linear-gradient)"/>
      <path id="Path_60-2" data-name="Path 60" d="M308.805,352.845c0,.233-.014.467,0,.7a6.089,6.089,0,0,0,4.368,5.722c2.209.5,4.952-1.078,6.218-3.633a7.432,7.432,0,0,0,.043-7.06,5.054,5.054,0,0,0-8.257-1.371A7.528,7.528,0,0,0,308.805,352.845Z" transform="translate(-281.8 -345.631)" fill="url(#linear-gradient)"/>
      <path id="Path_63-2" data-name="Path 63" d="M331.359,357.828c2.587-.079,4.73-2.731,4.534-5.609-.2-2.978-2.47-5.35-5.022-5.256-2.428.09-4.558,2.553-4.564,5.277C326.3,355.305,328.658,357.911,331.359,357.828Z" transform="translate(-309.766 -346.021)" fill="url(#linear-gradient)"/>
      <path id="Path_65-2" data-name="Path 65" d="M340.924,356.627c.212,2.211,1.647,3.6,3.61,3.489,2.031-.112,3.357-1.927,3.111-4.257-.211-2.005-1.928-3.706-3.635-3.6C342.125,352.371,340.708,354.376,340.924,356.627Z" transform="translate(-331.848 -347.574)" fill="url(#linear-gradient)"/>
      <path id="Path_66-2" data-name="Path 66" d="M349.456,362.934a3.955,3.955,0,0,0,3.324,3.869,3.106,3.106,0,0,0,3.1-3.094,3.656,3.656,0,0,0-3.311-3.795A2.936,2.936,0,0,0,349.456,362.934Z" transform="translate(-346.093 -349.822)" fill="url(#linear-gradient)"/>
      <path id="Path_69-2" data-name="Path 69" d="M354.191,372.039a3.7,3.7,0,0,0,3.8,3.377,2.963,2.963,0,0,0,2.625-3.179,3.833,3.833,0,0,0-3.922-3.3C354.934,369.037,354.034,370.153,354.191,372.039Z" transform="translate(-354.174 -352.47)" fill="url(#linear-gradient)"/>
    </g>
    <g id="Group_647" data-name="Group 647" transform="translate(0 22)">
      <line id="Line_6" data-name="Line 6" x2="129" transform="translate(144.5 206.5)" fill="none" stroke="#00e47a" stroke-linecap="round" stroke-width="5" opacity="0.81"/>
      <line id="Line_7" data-name="Line 7" x2="129" transform="translate(144.5 203.5)" fill="none" stroke="#00e47a" stroke-linecap="round" stroke-width="5"/>
    </g>
  </g>
</svg>
