<svg xmlns="http://www.w3.org/2000/svg" xmlns:xlink="http://www.w3.org/1999/xlink" width="113.061" height="320.494" viewBox="0 0 113.061 320.494">
  <defs>
    <radialGradient id="radial-gradient" cx="0.5" cy="0.5" r="0.998" gradientTransform="matrix(1, 0, 0, 0.501, 0, 0.249)" gradientUnits="objectBoundingBox">
      <stop offset="0" stop-color="#e7f0fd"/>
      <stop offset="1" stop-color="#ace1ee"/>
    </radialGradient>
  </defs>
  <path id="RightLeg" d="M435.364,402.486c-.246,22.317-7.2,43.445-11.139,65.1-4.812,26.436-8.7,53.037-13.1,79.55-1.669,10.07-3.289,20.168-5.52,30.121-3.288,14.669-13.1,23.166-27.5,26.29-14.423,3.131-27.133-.027-37.007-11.669-5.994-7.067-7.436-15.388-6.356-24.242,2.209-18.133,4.653-36.236,6.879-54.366,1.375-11.191,3.092-22.381,3.642-33.621.791-16.158-2.578-31.766-9.156-46.546-9.939-22.335-15.138-45.565-13.426-70.029,1.478-21.087,5.944-41.394,17.188-59.786,14.225-23.269,44.259-25.763,61.845-4.792,10.636,12.684,17.088,27.65,22.69,43.057C431.572,361.271,435.978,381.433,435.364,402.486Z" transform="translate(-322.36 -284.192)" fill="url(#radial-gradient)"/>
</svg>
