<svg xmlns="http://www.w3.org/2000/svg" width="269" height="269" viewBox="0 0 269 269">
  <g id="SenseIllus" transform="translate(-69 -326)">
    <g id="Ellipse_25" data-name="Ellipse 25" transform="translate(137 394)" fill="none" stroke="#0012ff" stroke-width="3" opacity="0.59">
      <circle cx="66.5" cy="66.5" r="66.5" stroke="none"/>
      <circle cx="66.5" cy="66.5" r="65" fill="none"/>
    </g>
    <g id="Ellipse_26" data-name="Ellipse 26" transform="translate(112 369)" fill="none" stroke="#0012ff" stroke-width="3" opacity="0.35">
      <circle cx="91.5" cy="91.5" r="91.5" stroke="none"/>
      <circle cx="91.5" cy="91.5" r="90" fill="none"/>
    </g>
    <g id="Ellipse_27" data-name="Ellipse 27" transform="translate(89 346)" fill="none" stroke="#0012ff" stroke-width="3" opacity="0.1">
      <circle cx="114.5" cy="114.5" r="114.5" stroke="none"/>
      <circle cx="114.5" cy="114.5" r="113" fill="none"/>
    </g>
    <g id="Path_109" data-name="Path 109" transform="translate(69 326)" fill="none" opacity="0.04">
      <path d="M134.5,0A134.5,134.5,0,1,1,0,134.5,134.5,134.5,0,0,1,134.5,0Z" stroke="none"/>
      <path d="M 134.5 3 C 125.575927734375 3 116.6583557128906 3.898895263671875 107.9949951171875 5.671630859375 C 99.55331420898438 7.399078369140625 91.24986267089844 9.976593017578125 83.315185546875 13.33267211914062 C 75.52392578125 16.62811279296875 68.00900268554688 20.70710754394531 60.97921752929688 25.45635986328125 C 54.01539611816406 30.16099548339844 47.46685791015625 35.56407165527344 41.51545715332031 41.51545715332031 C 35.56407165527344 47.46685791015625 30.16099548339844 54.01539611816406 25.45635986328125 60.97921752929688 C 20.70710754394531 68.00900268554688 16.62811279296875 75.52392578125 13.33267211914062 83.315185546875 C 9.976593017578125 91.24986267089844 7.399078369140625 99.55331420898438 5.671630859375 107.9949951171875 C 3.898895263671875 116.6583557128906 3 125.575927734375 3 134.5 C 3 143.424072265625 3.898895263671875 152.3416442871094 5.671630859375 161.0050048828125 C 7.399078369140625 169.4466857910156 9.976593017578125 177.7501525878906 13.33267211914062 185.684814453125 C 16.62811279296875 193.47607421875 20.70710754394531 200.9909973144531 25.45635986328125 208.0207824707031 C 30.16099548339844 214.9846038818359 35.56407165527344 221.5331420898438 41.51545715332031 227.4845275878906 C 47.46685791015625 233.4359283447266 54.01539611816406 238.8390045166016 60.97921752929688 243.5436401367188 C 68.00900268554688 248.2928924560547 75.52392578125 252.3718872070312 83.315185546875 255.6673278808594 C 91.24986267089844 259.0234069824219 99.55331420898438 261.6009216308594 107.9949951171875 263.328369140625 C 116.6583557128906 265.1011047363281 125.575927734375 266 134.5 266 C 143.424072265625 266 152.3416442871094 265.1011047363281 161.0050048828125 263.328369140625 C 169.4466857910156 261.6009216308594 177.7501525878906 259.0234069824219 185.684814453125 255.6673278808594 C 193.47607421875 252.3718872070312 200.9909973144531 248.2928924560547 208.0207824707031 243.5436401367188 C 214.9846038818359 238.8390045166016 221.5331420898438 233.4359283447266 227.4845275878906 227.4845275878906 C 233.4359283447266 221.5331420898438 238.8390045166016 214.9846038818359 243.5436401367188 208.0207824707031 C 248.2928924560547 200.9909973144531 252.3718872070312 193.47607421875 255.6673278808594 185.684814453125 C 259.0234069824219 177.7501525878906 261.6009216308594 169.4466857910156 263.328369140625 161.0050048828125 C 265.1011047363281 152.3416442871094 266 143.424072265625 266 134.5 C 266 125.575927734375 265.1011047363281 116.6583557128906 263.328369140625 107.9949951171875 C 261.6009216308594 99.55331420898438 259.0234069824219 91.24986267089844 255.6673278808594 83.315185546875 C 252.3718872070312 75.52392578125 248.2928924560547 68.00900268554688 243.5436401367188 60.97921752929688 C 238.8390045166016 54.01539611816406 233.4359283447266 47.46685791015625 227.4845275878906 41.51545715332031 C 221.5331420898438 35.56407165527344 214.9846038818359 30.16099548339844 208.0207824707031 25.45635986328125 C 200.9909973144531 20.70710754394531 193.47607421875 16.62811279296875 185.684814453125 13.33267211914062 C 177.7501525878906 9.976593017578125 169.4466857910156 7.399078369140625 161.0050048828125 5.671630859375 C 152.3416442871094 3.898895263671875 143.424072265625 3 134.5 3 M 134.5 0 C 208.7822875976562 0 269 60.21771240234375 269 134.5 C 269 208.7822875976562 208.7822875976562 269 134.5 269 C 60.21771240234375 269 0 208.7822875976562 0 134.5 C 0 60.21771240234375 60.21771240234375 0 134.5 0 Z" stroke="none" fill="#0012ff"/>
    </g>
    <g id="Group_618" data-name="Group 618">
      <g id="Group_616" data-name="Group 616" transform="translate(207.515 397.1)">
        <path id="Path_75" data-name="Path 75" d="M406.5,403.4c7.978-.119,13.181-4.8,17.144-11.23,3.52-5.715,6.031-11.8,6.552-18.618.781-10.222-3.569-17.955-11.373-24.064-1.519-1.189-3.2-2.171-5.055-3.415a38.922,38.922,0,0,1,.87-4.7c1.993-6.477,3.855-13.011,6.246-19.343a40.806,40.806,0,0,1,5.454-9.727c6.409-8.631,17.635-9.936,26.388-2.724,6.248,5.147,8.721,12.337,9.927,20.019,2.537,16.163-.313,31.4-8.035,45.8-6.379,11.893-11.372,24.324-13.921,37.637-.571,2.985-.755,6.043-1.3,9.034-1.518,8.319-8.337,15.569-19.782,13.91-.411-.06-.825-.1-1.237-.165-8.784-1.293-13.59-6.13-14.813-14.867C403,416.938,404.138,407.619,406.5,403.4Zm38.009-86.646a3.453,3.453,0,0,0-3.441,2.957,3.312,3.312,0,0,0,2.833,3.5,3.194,3.194,0,0,0,3.62-3.092A3.377,3.377,0,0,0,444.506,316.754ZM431.049,404.8a3.237,3.237,0,1,0-.516-6.449,3.238,3.238,0,0,0,.516,6.449Zm7.227-64.389a3.726,3.726,0,0,0-3.366-3.559,3.3,3.3,0,0,0-3.077,3.264,2.845,2.845,0,0,0,2.992,3.186A3.366,3.366,0,0,0,438.276,340.41Zm-1.49,45.725a3.463,3.463,0,0,0-3.21,3.189,3.165,3.165,0,0,0,3.48,3.206,3.068,3.068,0,0,0,2.972-3.291A3.294,3.294,0,0,0,436.787,386.136Zm-10.37,26.124a3.2,3.2,0,0,0-3.15-3.153,2.878,2.878,0,0,0-3.231,2.936,3.3,3.3,0,0,0,3.234,3.509A3.663,3.663,0,0,0,426.416,412.26Zm15.835-78.3a3.376,3.376,0,0,0,2.911-3.42,2.849,2.849,0,0,0-3.122-3.042,3.264,3.264,0,0,0-3.247,3.479A3.7,3.7,0,0,0,442.251,333.96Zm-12.972,89.749a2.841,2.841,0,0,0-3.139-3.022,3.374,3.374,0,0,0-3.3,3.027,3.767,3.767,0,0,0,3.5,3.385A3.3,3.3,0,0,0,429.279,423.709Zm14.187-59.63a3.305,3.305,0,0,0-3.142-3.166,3.574,3.574,0,0,0-3.226,3.6,3.308,3.308,0,0,0,3.456,2.855A2.978,2.978,0,0,0,443.466,364.078Zm-7.86-35.571a3.866,3.866,0,0,0-3.193-3.278,3.3,3.3,0,0,0-3.181,3.53,2.835,2.835,0,0,0,3.232,2.9A3.228,3.228,0,0,0,435.606,328.507Zm5.245,23.3a3.232,3.232,0,0,0-6.456-.274,3.113,3.113,0,0,0,3.282,3.4A3.187,3.187,0,0,0,440.851,351.8Zm3.341,24.412a3.235,3.235,0,1,0-6.464-.048,3.239,3.239,0,0,0,6.464.048Zm10.83-43.625a3.321,3.321,0,0,0-3.156-3.181,3.544,3.544,0,0,0-3.291,3.539A3.243,3.243,0,0,0,452,335.807,3.051,3.051,0,0,0,455.021,332.59ZM414.682,424.7a3.742,3.742,0,0,0,3.287-3.139,3.066,3.066,0,0,0-3.29-3.321,2.838,2.838,0,0,0-3,3.134A3.418,3.418,0,0,0,414.682,424.7ZM444.741,345.6a3.714,3.714,0,0,0,3.194-3.634,3.048,3.048,0,0,0-3.378-2.823,2.851,2.851,0,0,0-2.9,3.224A3.4,3.4,0,0,0,444.741,345.6Z" transform="translate(-403.419 -304.902)" fill="#005765"/>
        <path id="Path_108" data-name="Path 108" d="M406.5,403.4c7.978-.119,13.181-4.8,17.144-11.23,3.52-5.715,6.031-11.8,6.552-18.618.781-10.222-3.569-17.955-11.373-24.064-1.519-1.189-3.2-2.171-5.055-3.415a38.922,38.922,0,0,1,.87-4.7c1.993-6.477,3.855-13.011,6.246-19.343a40.806,40.806,0,0,1,5.454-9.727c6.409-8.631,17.635-9.936,26.388-2.724,6.248,5.147,8.721,12.337,9.927,20.019,2.537,16.163-.313,31.4-8.035,45.8-6.379,11.893-11.372,24.324-13.921,37.637-.571,2.985-.755,6.043-1.3,9.034-1.518,8.319-8.337,15.569-19.782,13.91-.411-.06-.825-.1-1.237-.165-8.784-1.293-13.59-6.13-14.813-14.867C403,416.938,404.138,407.619,406.5,403.4Zm38.009-86.646a3.453,3.453,0,0,0-3.441,2.957,3.312,3.312,0,0,0,2.833,3.5,3.194,3.194,0,0,0,3.62-3.092A3.377,3.377,0,0,0,444.506,316.754ZM431.049,404.8a3.237,3.237,0,1,0-.516-6.449,3.238,3.238,0,0,0,.516,6.449Zm7.227-64.389a3.726,3.726,0,0,0-3.366-3.559,3.3,3.3,0,0,0-3.077,3.264,2.845,2.845,0,0,0,2.992,3.186A3.366,3.366,0,0,0,438.276,340.41Zm-1.49,45.725a3.463,3.463,0,0,0-3.21,3.189,3.165,3.165,0,0,0,3.48,3.206,3.068,3.068,0,0,0,2.972-3.291A3.294,3.294,0,0,0,436.787,386.136Zm-10.37,26.124a3.2,3.2,0,0,0-3.15-3.153,2.878,2.878,0,0,0-3.231,2.936,3.3,3.3,0,0,0,3.234,3.509A3.663,3.663,0,0,0,426.416,412.26Zm15.835-78.3a3.376,3.376,0,0,0,2.911-3.42,2.849,2.849,0,0,0-3.122-3.042,3.264,3.264,0,0,0-3.247,3.479A3.7,3.7,0,0,0,442.251,333.96Zm-12.972,89.749a2.841,2.841,0,0,0-3.139-3.022,3.374,3.374,0,0,0-3.3,3.027,3.767,3.767,0,0,0,3.5,3.385A3.3,3.3,0,0,0,429.279,423.709Zm14.187-59.63a3.305,3.305,0,0,0-3.142-3.166,3.574,3.574,0,0,0-3.226,3.6,3.308,3.308,0,0,0,3.456,2.855A2.978,2.978,0,0,0,443.466,364.078Zm-7.86-35.571a3.866,3.866,0,0,0-3.193-3.278,3.3,3.3,0,0,0-3.181,3.53,2.835,2.835,0,0,0,3.232,2.9A3.228,3.228,0,0,0,435.606,328.507Zm5.245,23.3a3.232,3.232,0,0,0-6.456-.274,3.113,3.113,0,0,0,3.282,3.4A3.187,3.187,0,0,0,440.851,351.8Zm3.341,24.412a3.235,3.235,0,1,0-6.464-.048,3.239,3.239,0,0,0,6.464.048Zm10.83-43.625a3.321,3.321,0,0,0-3.156-3.181,3.544,3.544,0,0,0-3.291,3.539A3.243,3.243,0,0,0,452,335.807,3.051,3.051,0,0,0,455.021,332.59ZM414.682,424.7a3.742,3.742,0,0,0,3.287-3.139,3.066,3.066,0,0,0-3.29-3.321,2.838,2.838,0,0,0-3,3.134A3.418,3.418,0,0,0,414.682,424.7ZM444.741,345.6a3.714,3.714,0,0,0,3.194-3.634,3.048,3.048,0,0,0-3.378-2.823,2.851,2.851,0,0,0-2.9,3.224A3.4,3.4,0,0,0,444.741,345.6Z" transform="translate(-403.419 -304.902)" fill="#005765"/>
        <path id="Path_79" data-name="Path 79" d="M408.783,408.01c1.46-6.724,3.063-13.154,4.215-19.664s2.038-13.078.706-19.767c-.526-2.643-.087-5.477-.087-9.091a47.959,47.959,0,0,1,4.166,2.588c8.564,6.742,11.191,15.484,8.32,25.86-1.751,6.326-4.489,12.2-9.414,16.779C413.989,407.225,412.362,407.9,408.783,408.01Z" transform="translate(-404.317 -314.038)" fill="#00f0b8"/>
        <path id="Path_94" data-name="Path 94" d="M452.07,319.136a3.377,3.377,0,0,1,3.012,3.361,3.2,3.2,0,0,1-3.62,3.092,3.312,3.312,0,0,1-2.833-3.5A3.453,3.453,0,0,1,452.07,319.136Z" transform="translate(-410.984 -307.283)" fill="#fff"/>
        <path id="Path_95" data-name="Path 95" d="M435.929,423.58a3.238,3.238,0,0,1-.516-6.449,3.237,3.237,0,1,1,.516,6.449Z" transform="translate(-408.299 -323.683)" fill="#fff"/>
        <path id="Path_96" data-name="Path 96" d="M443.988,346.833a3.366,3.366,0,0,1-3.45,2.891,2.845,2.845,0,0,1-2.992-3.186,3.3,3.3,0,0,1,3.077-3.264A3.726,3.726,0,0,1,443.988,346.833Z" transform="translate(-409.131 -311.324)" fill="#fff"/>
        <path id="Path_97" data-name="Path 97" d="M442.848,402.465a3.294,3.294,0,0,1,3.241,3.1,3.068,3.068,0,0,1-2.972,3.291,3.165,3.165,0,0,1-3.48-3.206A3.463,3.463,0,0,1,442.848,402.465Z" transform="translate(-409.481 -321.231)" fill="#fff"/>
        <path id="Path_98" data-name="Path 98" d="M429.756,433.207a3.664,3.664,0,0,1-3.147,3.291,3.3,3.3,0,0,1-3.234-3.509,2.878,2.878,0,0,1,3.231-2.936A3.2,3.2,0,0,1,429.756,433.207Z" transform="translate(-406.759 -325.848)" fill="#fff"/>
        <path id="Path_99" data-name="Path 99" d="M449.358,338.5a3.7,3.7,0,0,1-3.459-2.984,3.264,3.264,0,0,1,3.247-3.479,2.849,2.849,0,0,1,3.122,3.042A3.376,3.376,0,0,1,449.358,338.5Z" transform="translate(-410.526 -309.444)" fill="#fff"/>
        <path id="Path_100" data-name="Path 100" d="M433.182,446.984a3.3,3.3,0,0,1-2.941,3.391,3.767,3.767,0,0,1-3.5-3.385,3.374,3.374,0,0,1,3.3-3.027A2.841,2.841,0,0,1,433.182,446.984Z" transform="translate(-407.322 -328.177)" fill="#fff"/>
        <path id="Path_101" data-name="Path 101" d="M450.233,375.337a2.978,2.978,0,0,1-2.913,3.291,3.308,3.308,0,0,1-3.456-2.855,3.574,3.574,0,0,1,3.226-3.6A3.305,3.305,0,0,1,450.233,375.337Z" transform="translate(-410.186 -316.161)" fill="#fff"/>
        <path id="Path_102" data-name="Path 102" d="M440.794,332.592a3.228,3.228,0,0,1-3.142,3.154,2.835,2.835,0,0,1-3.232-2.9,3.3,3.3,0,0,1,3.181-3.53A3.866,3.866,0,0,1,440.794,332.592Z" transform="translate(-408.607 -308.987)" fill="#fff"/>
        <path id="Path_103" data-name="Path 103" d="M447.075,360.572A3.187,3.187,0,0,1,443.9,363.7a3.113,3.113,0,0,1-3.282-3.4,3.232,3.232,0,0,1,6.456.274Z" transform="translate(-409.644 -313.67)" fill="#fff"/>
        <path id="Path_104" data-name="Path 104" d="M451.088,389.869a3.239,3.239,0,0,1-6.464-.048,3.235,3.235,0,1,1,6.464.048Z" transform="translate(-410.316 -318.555)" fill="#fff"/>
        <path id="Path_105" data-name="Path 105" d="M464.1,337.516a3.051,3.051,0,0,1-3.025,3.216,3.243,3.243,0,0,1-3.422-2.858,3.544,3.544,0,0,1,3.291-3.539A3.321,3.321,0,0,1,464.1,337.516Z" transform="translate(-412.495 -309.828)" fill="#fff"/>
        <path id="Path_106" data-name="Path 106" d="M416.343,447.479a3.418,3.418,0,0,1-3-3.326,2.838,2.838,0,0,1,3-3.134,3.066,3.066,0,0,1,3.29,3.321A3.742,3.742,0,0,1,416.343,447.479Z" transform="translate(-405.081 -327.684)" fill="#fff"/>
        <path id="Path_107" data-name="Path 107" d="M452.427,352.486a3.4,3.4,0,0,1-3.082-3.234,2.851,2.851,0,0,1,2.9-3.224,3.048,3.048,0,0,1,3.378,2.823A3.714,3.714,0,0,1,452.427,352.486Z" transform="translate(-411.105 -311.785)" fill="#fff"/>
      </g>
      <g id="Group_617" data-name="Group 617" transform="translate(133.411 397.1)">
        <path id="Path_75-2" data-name="Path 75" d="M460.475,403.4c-7.978-.119-13.181-4.8-17.144-11.23-3.52-5.715-6.031-11.8-6.552-18.618-.781-10.222,3.569-17.955,11.373-24.064,1.519-1.189,3.2-2.171,5.055-3.415a38.928,38.928,0,0,0-.87-4.7c-1.993-6.477-3.855-13.011-6.246-19.343a40.806,40.806,0,0,0-5.454-9.727c-6.409-8.631-17.635-9.936-26.388-2.724-6.248,5.147-8.721,12.337-9.927,20.019-2.537,16.163.313,31.4,8.035,45.8,6.379,11.893,11.372,24.324,13.921,37.637.571,2.985.755,6.043,1.3,9.034,1.518,8.319,8.337,15.569,19.782,13.91.411-.06.825-.1,1.237-.165,8.784-1.293,13.59-6.13,14.813-14.867C463.972,416.938,462.834,407.619,460.475,403.4Zm-38.009-86.646a3.453,3.453,0,0,1,3.441,2.957,3.312,3.312,0,0,1-2.833,3.5,3.2,3.2,0,0,1-3.62-3.092A3.377,3.377,0,0,1,422.466,316.754ZM435.923,404.8a3.237,3.237,0,1,1,.516-6.449,3.238,3.238,0,0,1-.516,6.449ZM428.7,340.41a3.726,3.726,0,0,1,3.366-3.559,3.3,3.3,0,0,1,3.077,3.264,2.845,2.845,0,0,1-2.992,3.186A3.367,3.367,0,0,1,428.7,340.41Zm1.49,45.725a3.463,3.463,0,0,1,3.21,3.189,3.165,3.165,0,0,1-3.48,3.206,3.068,3.068,0,0,1-2.972-3.291A3.294,3.294,0,0,1,430.185,386.136Zm10.37,26.124a3.2,3.2,0,0,1,3.15-3.153,2.878,2.878,0,0,1,3.231,2.936,3.3,3.3,0,0,1-3.234,3.509A3.663,3.663,0,0,1,440.556,412.26Zm-15.835-78.3a3.376,3.376,0,0,1-2.911-3.42,2.849,2.849,0,0,1,3.122-3.042,3.264,3.264,0,0,1,3.247,3.479A3.7,3.7,0,0,1,424.721,333.96Zm12.972,89.749a2.841,2.841,0,0,1,3.139-3.022,3.374,3.374,0,0,1,3.3,3.027,3.767,3.767,0,0,1-3.5,3.385A3.3,3.3,0,0,1,437.693,423.709Zm-14.187-59.63a3.305,3.305,0,0,1,3.142-3.166,3.574,3.574,0,0,1,3.226,3.6,3.308,3.308,0,0,1-3.456,2.855A2.978,2.978,0,0,1,423.506,364.078Zm7.86-35.571a3.866,3.866,0,0,1,3.193-3.278,3.3,3.3,0,0,1,3.181,3.53,2.835,2.835,0,0,1-3.232,2.9A3.228,3.228,0,0,1,431.366,328.507Zm-5.245,23.3a3.232,3.232,0,0,1,6.456-.274,3.113,3.113,0,0,1-3.282,3.4A3.187,3.187,0,0,1,426.121,351.8Zm-3.34,24.412a3.235,3.235,0,1,1,6.464-.048,3.239,3.239,0,0,1-6.464.048Zm-10.83-43.625a3.321,3.321,0,0,1,3.156-3.181,3.544,3.544,0,0,1,3.291,3.539,3.243,3.243,0,0,1-3.422,2.858A3.051,3.051,0,0,1,411.951,332.59ZM452.29,424.7A3.742,3.742,0,0,1,449,421.558a3.066,3.066,0,0,1,3.29-3.321,2.838,2.838,0,0,1,3,3.134A3.418,3.418,0,0,1,452.29,424.7ZM422.231,345.6a3.714,3.714,0,0,1-3.194-3.634,3.048,3.048,0,0,1,3.378-2.823,2.851,2.851,0,0,1,2.9,3.224A3.4,3.4,0,0,1,422.231,345.6Z" transform="translate(-403.419 -304.902)" fill="#005765"/>
        <path id="Path_108-2" data-name="Path 108" d="M460.475,403.4c-7.978-.119-13.181-4.8-17.144-11.23-3.52-5.715-6.031-11.8-6.552-18.618-.781-10.222,3.569-17.955,11.373-24.064,1.519-1.189,3.2-2.171,5.055-3.415a38.928,38.928,0,0,0-.87-4.7c-1.993-6.477-3.855-13.011-6.246-19.343a40.806,40.806,0,0,0-5.454-9.727c-6.409-8.631-17.635-9.936-26.388-2.724-6.248,5.147-8.721,12.337-9.927,20.019-2.537,16.163.313,31.4,8.035,45.8,6.379,11.893,11.372,24.324,13.921,37.637.571,2.985.755,6.043,1.3,9.034,1.518,8.319,8.337,15.569,19.782,13.91.411-.06.825-.1,1.237-.165,8.784-1.293,13.59-6.13,14.813-14.867C463.972,416.938,462.834,407.619,460.475,403.4Zm-38.009-86.646a3.453,3.453,0,0,1,3.441,2.957,3.312,3.312,0,0,1-2.833,3.5,3.2,3.2,0,0,1-3.62-3.092A3.377,3.377,0,0,1,422.466,316.754ZM435.923,404.8a3.237,3.237,0,1,1,.516-6.449,3.238,3.238,0,0,1-.516,6.449ZM428.7,340.41a3.726,3.726,0,0,1,3.366-3.559,3.3,3.3,0,0,1,3.077,3.264,2.845,2.845,0,0,1-2.992,3.186A3.367,3.367,0,0,1,428.7,340.41Zm1.49,45.725a3.463,3.463,0,0,1,3.21,3.189,3.165,3.165,0,0,1-3.48,3.206,3.068,3.068,0,0,1-2.972-3.291A3.294,3.294,0,0,1,430.185,386.136Zm10.37,26.124a3.2,3.2,0,0,1,3.15-3.153,2.878,2.878,0,0,1,3.231,2.936,3.3,3.3,0,0,1-3.234,3.509A3.663,3.663,0,0,1,440.556,412.26Zm-15.835-78.3a3.376,3.376,0,0,1-2.911-3.42,2.849,2.849,0,0,1,3.122-3.042,3.264,3.264,0,0,1,3.247,3.479A3.7,3.7,0,0,1,424.721,333.96Zm12.972,89.749a2.841,2.841,0,0,1,3.139-3.022,3.374,3.374,0,0,1,3.3,3.027,3.767,3.767,0,0,1-3.5,3.385A3.3,3.3,0,0,1,437.693,423.709Zm-14.187-59.63a3.305,3.305,0,0,1,3.142-3.166,3.574,3.574,0,0,1,3.226,3.6,3.308,3.308,0,0,1-3.456,2.855A2.978,2.978,0,0,1,423.506,364.078Zm7.86-35.571a3.866,3.866,0,0,1,3.193-3.278,3.3,3.3,0,0,1,3.181,3.53,2.835,2.835,0,0,1-3.232,2.9A3.228,3.228,0,0,1,431.366,328.507Zm-5.245,23.3a3.232,3.232,0,0,1,6.456-.274,3.113,3.113,0,0,1-3.282,3.4A3.187,3.187,0,0,1,426.121,351.8Zm-3.34,24.412a3.235,3.235,0,1,1,6.464-.048,3.239,3.239,0,0,1-6.464.048Zm-10.83-43.625a3.321,3.321,0,0,1,3.156-3.181,3.544,3.544,0,0,1,3.291,3.539,3.243,3.243,0,0,1-3.422,2.858A3.051,3.051,0,0,1,411.951,332.59ZM452.29,424.7A3.742,3.742,0,0,1,449,421.558a3.066,3.066,0,0,1,3.29-3.321,2.838,2.838,0,0,1,3,3.134A3.418,3.418,0,0,1,452.29,424.7ZM422.231,345.6a3.714,3.714,0,0,1-3.194-3.634,3.048,3.048,0,0,1,3.378-2.823,2.851,2.851,0,0,1,2.9,3.224A3.4,3.4,0,0,1,422.231,345.6Z" transform="translate(-403.419 -304.902)" fill="#005765"/>
        <path id="Path_79-2" data-name="Path 79" d="M427.22,408.01c-1.46-6.724-3.063-13.154-4.215-19.664s-2.038-13.078-.706-19.767c.526-2.643.087-5.477.087-9.091a47.95,47.95,0,0,0-4.166,2.588c-8.564,6.742-11.191,15.484-8.32,25.86,1.751,6.326,4.489,12.2,9.414,16.779C422.014,407.225,423.642,407.9,427.22,408.01Z" transform="translate(-371.553 -314.038)" fill="#00f0b8"/>
        <path id="Path_94-2" data-name="Path 94" d="M451.625,319.136a3.377,3.377,0,0,0-3.012,3.361,3.194,3.194,0,0,0,3.62,3.092,3.312,3.312,0,0,0,2.833-3.5A3.453,3.453,0,0,0,451.625,319.136Z" transform="translate(-432.578 -307.283)" fill="#fff"/>
        <path id="Path_95-2" data-name="Path 95" d="M435.678,423.58a3.238,3.238,0,0,0,.516-6.449,3.237,3.237,0,1,0-.516,6.449Z" transform="translate(-403.174 -323.683)" fill="#fff"/>
        <path id="Path_96-2" data-name="Path 96" d="M437.549,346.833a3.366,3.366,0,0,0,3.45,2.891,2.845,2.845,0,0,0,2.992-3.186,3.3,3.3,0,0,0-3.077-3.264A3.726,3.726,0,0,0,437.549,346.833Z" transform="translate(-412.273 -311.324)" fill="#fff"/>
        <path id="Path_97-2" data-name="Path 97" d="M442.881,402.465a3.294,3.294,0,0,0-3.241,3.1,3.068,3.068,0,0,0,2.972,3.291,3.165,3.165,0,0,0,3.48-3.206A3.463,3.463,0,0,0,442.881,402.465Z" transform="translate(-416.115 -321.231)" fill="#fff"/>
        <path id="Path_98-2" data-name="Path 98" d="M423.372,433.207a3.663,3.663,0,0,0,3.146,3.291,3.3,3.3,0,0,0,3.234-3.509,2.878,2.878,0,0,0-3.231-2.936A3.2,3.2,0,0,0,423.372,433.207Z" transform="translate(-386.236 -325.848)" fill="#fff"/>
        <path id="Path_99-2" data-name="Path 99" d="M448.791,338.5a3.7,3.7,0,0,0,3.459-2.984A3.264,3.264,0,0,0,449,332.039a2.849,2.849,0,0,0-3.122,3.042A3.376,3.376,0,0,0,448.791,338.5Z" transform="translate(-427.49 -309.444)" fill="#fff"/>
        <path id="Path_100-2" data-name="Path 100" d="M426.739,446.984a3.3,3.3,0,0,0,2.941,3.391,3.767,3.767,0,0,0,3.5-3.385,3.374,3.374,0,0,0-3.3-3.027A2.841,2.841,0,0,0,426.739,446.984Z" transform="translate(-392.465 -328.177)" fill="#fff"/>
        <path id="Path_101-2" data-name="Path 101" d="M443.853,375.337a2.978,2.978,0,0,0,2.913,3.291,3.308,3.308,0,0,0,3.456-2.855,3.574,3.574,0,0,0-3.226-3.6A3.305,3.305,0,0,0,443.853,375.337Z" transform="translate(-423.766 -316.161)" fill="#fff"/>
        <path id="Path_102-2" data-name="Path 102" d="M434.415,332.592a3.228,3.228,0,0,0,3.142,3.154,2.835,2.835,0,0,0,3.232-2.9,3.3,3.3,0,0,0-3.181-3.53A3.866,3.866,0,0,0,434.415,332.592Z" transform="translate(-406.469 -308.987)" fill="#fff"/>
        <path id="Path_103-2" data-name="Path 103" d="M440.61,360.572a3.187,3.187,0,0,0,3.174,3.124,3.113,3.113,0,0,0,3.282-3.4,3.232,3.232,0,0,0-6.456.274Z" transform="translate(-417.908 -313.67)" fill="#fff"/>
        <path id="Path_104-2" data-name="Path 104" d="M444.625,389.869a3.239,3.239,0,0,0,6.464-.048,3.235,3.235,0,1,0-6.464.048Z" transform="translate(-425.263 -318.555)" fill="#fff"/>
        <path id="Path_105-2" data-name="Path 105" d="M457.643,337.516a3.051,3.051,0,0,0,3.025,3.216,3.243,3.243,0,0,0,3.422-2.858,3.544,3.544,0,0,0-3.291-3.539A3.321,3.321,0,0,0,457.643,337.516Z" transform="translate(-449.112 -309.828)" fill="#fff"/>
        <path id="Path_106-2" data-name="Path 106" d="M416.645,447.479a3.418,3.418,0,0,0,3-3.326,2.838,2.838,0,0,0-3-3.134,3.066,3.066,0,0,0-3.29,3.321A3.742,3.742,0,0,0,416.645,447.479Z" transform="translate(-367.774 -327.684)" fill="#fff"/>
        <path id="Path_107-2" data-name="Path 107" d="M452.54,352.486a3.4,3.4,0,0,0,3.082-3.234,2.851,2.851,0,0,0-2.9-3.224,3.048,3.048,0,0,0-3.378,2.823A3.714,3.714,0,0,0,452.54,352.486Z" transform="translate(-433.729 -311.785)" fill="#fff"/>
      </g>
    </g>
  </g>
</svg>
